#!OML:ASF F:\VICON\USERDATA\Patient Classification 1\PLAYGROUND\JustinFriday\JustinFriday.ASF
:FULLY-SPECIFIED
:DEGREES
3048
root 14.1818 18.0125 53.3146 359.692 -202.827 4.63597
lowerback 12.111 -0.366238 -4.85031
upperback 12.6082 0.906223 1.84527
thorax 6.61013 0.717178 4.70842
lowerneck -17.8301 -3.25305 -12.6383
upperneck 8.81645 -3.38971 16.794
head 6.14673 -0.700157 7.26388
rclavicle -2.60408e-014 9.54166e-015
rhumerus 34.6557 39.3681 -74.5821
rradius 51.7092
rwrist 2.69349
rhand -24.374 -15.1758
rfingers 7.12502
rthumb 2.11612 -45.1451
lclavicle -2.60408e-014 9.54166e-015
lhumerus 30.3412 5.09842 73.3409
lradius 37.4515
lwrist -9.837
lhand -14.9288 -12.5026
lfingers 7.12502
lthumb 11.2335 17.1766
rfemur -19.9045 3.51891 23.9517
rtibia 49.374
rfoot 15.8525 -27.6643
rtoes 63.6881
lfemur -2.72794 11.7008 -12.818
ltibia 25.5209
lfoot -17.238 2.45137
ltoes 2.424
3049
root 14.2032 18.011 53.3006 358.979 -203.189 4.15103
lowerback 12.4302 -0.314611 -5.33614
upperback 12.7197 0.968568 1.69224
thorax 6.5679 0.73111 4.81402
lowerneck -17.958 -3.24975 -12.7231
upperneck 8.67173 -3.34854 16.9638
head 6.12366 -0.663286 7.34079
rclavicle 2.04748e-014 9.14409e-015
rhumerus 33.6588 39.6775 -74.5889
rradius 52.156
rwrist 2.16047
rhand -24.3474 -15.2199
rfingers 7.12502
rthumb 2.14186 -45.1889
lclavicle 2.04748e-014 9.14409e-015
lhumerus 30.0409 5.52876 73.6208
lradius 37.4071
lwrist -12.0538
lhand -16.1367 -13.1002
lfingers 7.12502
lthumb 10.0683 16.639
rfemur -19.4335 3.53747 23.0929
rtibia 49.8407
rfoot 16.7241 -28.3311
rtoes 64.0134
lfemur -1.61883 11.5013 -13.1758
ltibia 24.8745
lfoot -17.1887 2.7991
ltoes 2.00476
3050
root 14.2235 18.0225 53.2793 358.714 -203.358 3.58289
lowerback 12.3477 -0.220546 -5.88274
upperback 12.6786 1.04607 1.60019
thorax 6.57021 0.725467 5.01888
lowerneck -18.4102 -3.43767 -12.3899
upperneck 8.95894 -3.63951 16.6309
head 6.32006 -0.797291 7.14524
rclavicle -7.35503e-015 -1.43125e-014
rhumerus 30.8092 39.6406 -75.4813
rradius 53.5581
rwrist 2.29843
rhand -24.6226 -14.7401
rfingers 7.12502
rthumb 1.87609 -44.7116
lclavicle -7.35503e-015 -1.43125e-014
lhumerus 30.5291 7.28445 75.5219
lradius 36.8571
lwrist -14.0929
lhand -16.7661 -13.0224
lfingers 7.12502
lthumb 9.46101 16.7452
rfemur -19.5161 3.39385 22.0572
rtibia 50.211
rfoot 17.6098 -29.0318
rtoes 64.2882
lfemur -1.16135 11.2289 -13.7634
ltibia 24.3292
lfoot -17.1508 3.10893
ltoes 1.70301
3051
root 14.2493 18.019 53.2629 358.42 -203.725 3.26785
lowerback 12.3051 -0.14741 -6.22431
upperback 12.7071 1.12588 1.50484
thorax 6.62448 0.740317 5.10597
lowerneck -18.6335 -3.55825 -12.0778
upperneck 8.9588 -3.83348 16.4157
head 6.37582 -0.886485 6.99512
rclavicle 5.96354e-016 -1.98785e-015
rhumerus 27.6022 39.5511 -76.7919
rradius 55.0783
rwrist 2.7875
rhand -24.2708 -14.0024
rfingers 7.12502
rthumb 2.21581 -43.9707
lclavicle 5.96354e-016 -1.98785e-015
lhumerus 29.1058 5.51874 73.2934
lradius 38.1449
lwrist -12.6241
lhand -18.7621 -11.3814
lfingers 7.12502
lthumb 7.53474 18.4644
rfemur -19.4171 3.49367 21.2818
rtibia 50.4613
rfoot 18.3139 -29.9757
rtoes 64.486
lfemur -0.507916 11.3288 -13.981
ltibia 23.7337
lfoot -17.0815 3.25391
ltoes 1.29217
3052
root 14.2728 18.0175 53.2474 358.37 -203.943 3.38391
lowerback 12.2336 -0.141988 -6.11571
upperback 12.7207 1.14047 1.53063
thorax 6.67387 0.751374 5.07298
lowerneck -18.8103 -3.58696 -11.9546
upperneck 8.81728 -3.86328 16.4109
head 6.36398 -0.888063 6.96677
rclavicle -9.14409e-015 2.46493e-014
rhumerus 25.6619 39.3835 -77.2559
rradius 55.9088
rwrist 2.40942
rhand -22.845 -13.2648
rfingers 7.12502
rthumb 3.59283 -43.2143
lclavicle -9.14409e-015 2.46493e-014
lhumerus 28.2277 5.05619 72.4189
lradius 39.1768
lwrist -11.0515
lhand -18.2552 -11.7353
lfingers 7.12502
lthumb 8.02405 18.0924
rfemur -19.3505 3.57501 20.9141
rtibia 50.5867
rfoot 17.9055 -31.0055
rtoes 64.4513
lfemur -0.0275528 11.4333 -13.7436
ltibia 23.334
lfoot -17.1209 3.03159
ltoes 2.02279
3053
root 14.2969 18.0333 53.225 358.441 -204.186 3.58679
lowerback 12.0694 -0.125104 -5.8917
upperback 12.6932 1.16648 1.5979
thorax 6.72219 0.770581 5.0186
lowerneck -19.0807 -3.64758 -11.7744
upperneck 8.87399 -3.95743 16.3114
head 6.43518 -0.921474 6.8936
rclavicle -4.77083e-014 1.90833e-014
rhumerus 23.8525 39.4114 -77.5027
rradius 56.3134
rwrist 2.09317
rhand -22.6188 -12.4799
rfingers 7.12502
rthumb 3.81118 -42.4255
lclavicle -4.77083e-014 1.90833e-014
lhumerus 27.6173 4.48165 71.7328
lradius 39.6647
lwrist -10.3907
lhand -19.3278 -11.4454
lfingers 7.12502
lthumb 6.98869 18.4193
rfemur -19.3474 3.64367 20.6049
rtibia 50.579
rfoot 17.1868 -31.924
rtoes 64.3367
lfemur 0.283277 11.5669 -13.4283
ltibia 23.1191
lfoot -17.2571 2.7487
ltoes 2.92492
